<svg width="20" height="14" viewBox="0 0 20 14" fill="none" xmlns="http://www.w3.org/2000/svg">
<path d="M16.4166 0.681667C16.1233 0.599167 15.8208 0.5625 15.5 0.5625H4.49998C4.17915 0.5625 3.87665 0.599167 3.58331 0.681667C2.00665 1.09417 0.833313 2.53333 0.833313 4.22917V9.72917C0.833313 11.7458 2.48331 13.3958 4.49998 13.3958H15.5C17.5166 13.3958 19.1666 11.7458 19.1666 9.72917V4.22917C19.1666 2.53333 17.9933 1.09417 16.4166 0.681667ZM13.6666 5.17333V9.04167C13.6666 10.0867 12.8141 10.9392 11.7691 10.9392C10.7241 10.9392 9.87165 10.0867 9.87165 9.04167C9.87165 7.99667 10.7241 7.14417 11.7691 7.14417C11.9525 7.14417 12.1266 7.18083 12.2916 7.22667V6.07167L9.22081 6.90583V9.84833C9.22081 9.8575 9.22081 9.86667 9.21165 9.87583C9.20248 10.9117 8.34998 11.755 7.31415 11.755C6.26915 11.755 5.41665 10.9025 5.41665 9.84833C5.41665 8.79417 6.26915 7.95083 7.31415 7.95083C7.49748 7.95083 7.67165 7.9875 7.84581 8.03333V6.38333V4.9625C7.84581 4.17417 8.34081 3.5325 9.09248 3.33083L11.5216 2.66167C12.3008 2.45083 12.7958 2.6525 13.0708 2.86333C13.3458 3.07417 13.6666 3.48667 13.6666 4.3025V5.17333Z" fill="#EFEEE0" fill-opacity="0.25"/>
</svg>
